<svg xmlns="http://www.w3.org/2000/svg" width="64" height="64" viewBox="0 0 64 64"><g style="line-height:125%;-inkscape-font-specification:Cantarell" font-weight="400" font-size="36.913" font-family="Cantarell" letter-spacing="0" word-spacing="0" fill="#fff" text-anchor="middle"><path d="M8.02 60v-2.809h47.96V60H8.02z" style="line-height:81.00000024%;-inkscape-font-specification:Varela;text-align:center" font-family="Varela"/><path d="M32.069 53.055q-5.07 0-9.524-1.918-4.522-1.919-7.81-5.207-3.357-3.357-5.276-7.81-1.987-4.454-1.987-9.524 0-5.07 1.987-9.523 1.919-4.522 5.276-7.81 3.288-3.358 7.81-5.276Q27 4 32.07 4q5.07 0 9.523 1.987 4.453 1.918 7.81 5.275 3.289 3.289 5.207 7.81 1.919 4.454 1.919 9.524 0 5.07-1.919 9.523-1.918 4.454-5.207 7.81-3.357 3.29-7.81 5.208-4.454 1.918-9.523 1.918zm.068-2.877q4.522 0 8.496-1.645 3.905-1.713 6.85-4.659 2.878-2.946 4.591-6.85 1.713-3.906 1.713-8.36 0-4.453-1.713-8.427-1.713-3.973-4.659-6.92-2.946-3.014-6.85-4.727-3.975-1.712-8.496-1.712-4.522 0-8.496 1.712-3.974 1.713-6.92 4.66-3.014 2.945-4.727 6.919-1.713 3.974-1.713 8.427 0 4.453 1.781 8.427 1.713 3.905 4.728 6.851 2.946 2.946 6.92 4.66 3.973 1.644 8.495 1.644z" style="line-height:81.00000024%;-inkscape-font-specification:'Josefin Sans';text-align:center" font-family="Josefin Sans" letter-spacing="-3.864"/></g><g style="line-height:125%;-inkscape-font-specification:'Noto Sans'"><path d="M42.533 42.715L38.524 32.4H25.316l-3.962 10.316h-4.236L30.12 9.285h3.78l12.981 33.43h-4.35zm-5.261-14.028L33.537 18.6l-1.594-4.988q-.683 2.733-1.435 4.988l-3.78 10.088h10.544z" style="line-height:81.00000024%;-inkscape-font-specification:'Noto Sans';text-align:center" font-size="24.382" text-anchor="middle" font-weight="400" font-family="Noto Sans" letter-spacing="0" word-spacing="0" fill="#fff"/></g></svg>